# xmcd CD database file
#
# Track frame offsets:
#	150
#	14917
#	30532
#	41954
#	56096
#	66404
#	78794
#	89401
#	106358
#	118621
#
# Disc length: 1743 seconds
#
# Revision: 1
# Processed by: cddbd v1.5.2PL0 Copyright (c) Steve Scherf et al.
# Submitted via: CDex 1.51
#
DISCID=8906cd0a
DTITLE=Various Artist - classic fugitive hits
DYEAR=1900
DGENRE=Country
TTITLE0=waylon jennings and johnny cash - there ain't no good chain gang
TTITLE1=willie nelson - mamas don't let your babies
TTITLE2=george jones - white lightning
TTITLE3=merle haggard - I'm a lonesome fugitive
TTITLE4=faron young - live fast love hard die young
TTITLE5=freddy fenderwasted days and wasted nights
TTITLE6=webb pierce - in the jailhouse now
TTITLE7=stonewall jackson - I washed my hands in muddy water
TTITLE8=hank williams - lost highway
TTITLE9=ted daffan's texans - headin down the wrong
EXTD=
EXTT0=
EXTT1=
EXTT2=
EXTT3=
EXTT4=
EXTT5=
EXTT6=
EXTT7=
EXTT8=
EXTT9=
PLAYORDER=
